<svg width="128" height="128" viewBox="0 0 128 128" xmlns="http://www.w3.org/2000/svg">
  <defs>
    <linearGradient id="bg" x1="0" y1="0" x2="1" y2="1">
      <stop offset="0%" stop-color="#7c4dff"/>
      <stop offset="100%" stop-color="#4c9aff"/>
    </linearGradient>
  </defs>
  <rect width="128" height="128" rx="24" fill="url(#bg)"/>
  <g transform="translate(16, 16) scale(0.1) translate(0, 960)">
    <path fill="#fff" d="M440-440q17 0 28.5-11.5T480-480q0-17-11.5-28.5T440-520q-17 0-28.5 11.5T400-480q0 17 11.5 28.5T440-440ZM280-120v-80l240-40v-445q0-15-9-27t-23-14l-208-34v-80l220 36q44 8 72 41t28 77v512l-320 54Zm-160 0v-80h80v-560q0-34 23.5-57t56.5-23h400q34 0 57 23t23 57v560h80v80H120Zm160 0h400v-560H280v560Z"/>
  </g>
</svg>
